<?xml version="1.0"?>
<svg xmlns="http://www.w3.org/2000/svg">
	<line x1="230.0" y1="0" x2="230.0" y2="60.0" stroke="black" stroke-width="2"/> 
	<line x1="160.0" y1="100" x2="230.0" y2="60.0" stroke="blue" stroke-width="2"/> 
	<line x1="160.0" y1="100" x2="160.0" y2="160.0" stroke="black" stroke-width="2"/> 
	<line x1="230.0" y1="100" x2="230.0" y2="60.0" stroke="blue" stroke-width="2"/> 
	<line x1="230.0" y1="100" x2="230.0" y2="160.0" stroke="black" stroke-width="2"/> 
	<line x1="300.0" y1="100" x2="230.0" y2="60.0" stroke="blue" stroke-width="2"/> 
	<line x1="300.0" y1="100" x2="300.0" y2="160.0" stroke="black" stroke-width="2"/> 
	<line x1="90.0" y1="200" x2="160.0" y2="160.0" stroke="blue" stroke-width="2"/> 
	<line x1="90.0" y1="200" x2="90.0" y2="260.0" stroke="black" stroke-width="2"/> 
	<line x1="160.0" y1="200" x2="160.0" y2="160.0" stroke="blue" stroke-width="2"/> 
	<line x1="160.0" y1="200" x2="160.0" y2="260.0" stroke="black" stroke-width="2"/> 
	<line x1="230.0" y1="200" x2="160.0" y2="160.0" stroke="blue" stroke-width="2"/> 
	<line x1="230.0" y1="200" x2="230.0" y2="260.0" stroke="black" stroke-width="2"/> 
	<line x1="160.0" y1="200" x2="230.0" y2="160.0" stroke="blue" stroke-width="2"/> 
	<line x1="160.0" y1="200" x2="160.0" y2="260.0" stroke="black" stroke-width="2"/> 
	<line x1="230.0" y1="200" x2="230.0" y2="160.0" stroke="blue" stroke-width="2"/> 
	<line x1="230.0" y1="200" x2="230.0" y2="260.0" stroke="black" stroke-width="2"/> 
	<line x1="300.0" y1="200" x2="230.0" y2="160.0" stroke="blue" stroke-width="2"/> 
	<line x1="300.0" y1="200" x2="300.0" y2="260.0" stroke="black" stroke-width="2"/> 
	<line x1="230.0" y1="200" x2="300.0" y2="160.0" stroke="blue" stroke-width="2"/> 
	<line x1="230.0" y1="200" x2="230.0" y2="260.0" stroke="black" stroke-width="2"/> 
	<line x1="300.0" y1="200" x2="300.0" y2="160.0" stroke="blue" stroke-width="2"/> 
	<line x1="300.0" y1="200" x2="300.0" y2="260.0" stroke="black" stroke-width="2"/> 
	<line x1="370.0" y1="200" x2="300.0" y2="160.0" stroke="blue" stroke-width="2"/> 
	<line x1="370.0" y1="200" x2="370.0" y2="260.0" stroke="black" stroke-width="2"/> 
	<line x1="0.0" y1="300" x2="90.0" y2="260.0" stroke="blue" stroke-width="2"/> 
	<line x1="0.0" y1="300" x2="0.0" y2="360.0" stroke="black" stroke-width="2"/> 
	<line x1="60.0" y1="300" x2="90.0" y2="260.0" stroke="blue" stroke-width="2"/> 
	<line x1="60.0" y1="300" x2="60.0" y2="360.0" stroke="black" stroke-width="2"/> 
	<line x1="120.0" y1="300" x2="90.0" y2="260.0" stroke="blue" stroke-width="2"/> 
	<line x1="120.0" y1="300" x2="120.0" y2="360.0" stroke="black" stroke-width="2"/> 
	<line x1="180.0" y1="300" x2="90.0" y2="260.0" stroke="blue" stroke-width="2"/> 
	<line x1="180.0" y1="300" x2="180.0" y2="360.0" stroke="black" stroke-width="2"/> 
	<line x1="70.0" y1="300" x2="160.0" y2="260.0" stroke="blue" stroke-width="2"/> 
	<line x1="70.0" y1="300" x2="70.0" y2="360.0" stroke="black" stroke-width="2"/> 
	<line x1="130.0" y1="300" x2="160.0" y2="260.0" stroke="blue" stroke-width="2"/> 
	<line x1="130.0" y1="300" x2="130.0" y2="360.0" stroke="black" stroke-width="2"/> 
	<line x1="190.0" y1="300" x2="160.0" y2="260.0" stroke="blue" stroke-width="2"/> 
	<line x1="190.0" y1="300" x2="190.0" y2="360.0" stroke="black" stroke-width="2"/> 
	<line x1="250.0" y1="300" x2="160.0" y2="260.0" stroke="blue" stroke-width="2"/> 
	<line x1="250.0" y1="300" x2="250.0" y2="360.0" stroke="black" stroke-width="2"/> 
	<line x1="140.0" y1="300" x2="230.0" y2="260.0" stroke="blue" stroke-width="2"/> 
	<line x1="140.0" y1="300" x2="140.0" y2="360.0" stroke="black" stroke-width="2"/> 
	<line x1="200.0" y1="300" x2="230.0" y2="260.0" stroke="blue" stroke-width="2"/> 
	<line x1="200.0" y1="300" x2="200.0" y2="360.0" stroke="black" stroke-width="2"/> 
	<line x1="260.0" y1="300" x2="230.0" y2="260.0" stroke="blue" stroke-width="2"/> 
	<line x1="260.0" y1="300" x2="260.0" y2="360.0" stroke="black" stroke-width="2"/> 
	<line x1="320.0" y1="300" x2="230.0" y2="260.0" stroke="blue" stroke-width="2"/> 
	<line x1="320.0" y1="300" x2="320.0" y2="360.0" stroke="black" stroke-width="2"/> 
	<line x1="70.0" y1="300" x2="160.0" y2="260.0" stroke="blue" stroke-width="2"/> 
	<line x1="70.0" y1="300" x2="70.0" y2="360.0" stroke="black" stroke-width="2"/> 
	<line x1="130.0" y1="300" x2="160.0" y2="260.0" stroke="blue" stroke-width="2"/> 
	<line x1="130.0" y1="300" x2="130.0" y2="360.0" stroke="black" stroke-width="2"/> 
	<line x1="190.0" y1="300" x2="160.0" y2="260.0" stroke="blue" stroke-width="2"/> 
	<line x1="190.0" y1="300" x2="190.0" y2="360.0" stroke="black" stroke-width="2"/> 
	<line x1="250.0" y1="300" x2="160.0" y2="260.0" stroke="blue" stroke-width="2"/> 
	<line x1="250.0" y1="300" x2="250.0" y2="360.0" stroke="black" stroke-width="2"/> 
	<line x1="140.0" y1="300" x2="230.0" y2="260.0" stroke="blue" stroke-width="2"/> 
	<line x1="140.0" y1="300" x2="140.0" y2="360.0" stroke="black" stroke-width="2"/> 
	<line x1="200.0" y1="300" x2="230.0" y2="260.0" stroke="blue" stroke-width="2"/> 
	<line x1="200.0" y1="300" x2="200.0" y2="360.0" stroke="black" stroke-width="2"/> 
	<line x1="260.0" y1="300" x2="230.0" y2="260.0" stroke="blue" stroke-width="2"/> 
	<line x1="260.0" y1="300" x2="260.0" y2="360.0" stroke="black" stroke-width="2"/> 
	<line x1="320.0" y1="300" x2="230.0" y2="260.0" stroke="blue" stroke-width="2"/> 
	<line x1="320.0" y1="300" x2="320.0" y2="360.0" stroke="black" stroke-width="2"/> 
	<line x1="210.0" y1="300" x2="300.0" y2="260.0" stroke="blue" stroke-width="2"/> 
	<line x1="210.0" y1="300" x2="210.0" y2="360.0" stroke="black" stroke-width="2"/> 
	<line x1="270.0" y1="300" x2="300.0" y2="260.0" stroke="blue" stroke-width="2"/> 
	<line x1="270.0" y1="300" x2="270.0" y2="360.0" stroke="black" stroke-width="2"/> 
	<line x1="330.0" y1="300" x2="300.0" y2="260.0" stroke="blue" stroke-width="2"/> 
	<line x1="330.0" y1="300" x2="330.0" y2="360.0" stroke="black" stroke-width="2"/> 
	<line x1="390.0" y1="300" x2="300.0" y2="260.0" stroke="blue" stroke-width="2"/> 
	<line x1="390.0" y1="300" x2="390.0" y2="360.0" stroke="black" stroke-width="2"/> 
	<line x1="140.0" y1="300" x2="230.0" y2="260.0" stroke="blue" stroke-width="2"/> 
	<line x1="140.0" y1="300" x2="140.0" y2="360.0" stroke="black" stroke-width="2"/> 
	<line x1="200.0" y1="300" x2="230.0" y2="260.0" stroke="blue" stroke-width="2"/> 
	<line x1="200.0" y1="300" x2="200.0" y2="360.0" stroke="black" stroke-width="2"/> 
	<line x1="260.0" y1="300" x2="230.0" y2="260.0" stroke="blue" stroke-width="2"/> 
	<line x1="260.0" y1="300" x2="260.0" y2="360.0" stroke="black" stroke-width="2"/> 
	<line x1="320.0" y1="300" x2="230.0" y2="260.0" stroke="blue" stroke-width="2"/> 
	<line x1="320.0" y1="300" x2="320.0" y2="360.0" stroke="black" stroke-width="2"/> 
	<line x1="210.0" y1="300" x2="300.0" y2="260.0" stroke="blue" stroke-width="2"/> 
	<line x1="210.0" y1="300" x2="210.0" y2="360.0" stroke="black" stroke-width="2"/> 
	<line x1="270.0" y1="300" x2="300.0" y2="260.0" stroke="blue" stroke-width="2"/> 
	<line x1="270.0" y1="300" x2="270.0" y2="360.0" stroke="black" stroke-width="2"/> 
	<line x1="330.0" y1="300" x2="300.0" y2="260.0" stroke="blue" stroke-width="2"/> 
	<line x1="330.0" y1="300" x2="330.0" y2="360.0" stroke="black" stroke-width="2"/> 
	<line x1="390.0" y1="300" x2="300.0" y2="260.0" stroke="blue" stroke-width="2"/> 
	<line x1="390.0" y1="300" x2="390.0" y2="360.0" stroke="black" stroke-width="2"/> 
	<line x1="280.0" y1="300" x2="370.0" y2="260.0" stroke="blue" stroke-width="2"/> 
	<line x1="280.0" y1="300" x2="280.0" y2="360.0" stroke="black" stroke-width="2"/> 
	<line x1="340.0" y1="300" x2="370.0" y2="260.0" stroke="blue" stroke-width="2"/> 
	<line x1="340.0" y1="300" x2="340.0" y2="360.0" stroke="black" stroke-width="2"/> 
	<line x1="400.0" y1="300" x2="370.0" y2="260.0" stroke="blue" stroke-width="2"/> 
	<line x1="400.0" y1="300" x2="400.0" y2="360.0" stroke="black" stroke-width="2"/> 
	<line x1="460.0" y1="300" x2="370.0" y2="260.0" stroke="blue" stroke-width="2"/> 
	<line x1="460.0" y1="300" x2="460.0" y2="360.0" stroke="black" stroke-width="2"/> 
</svg>