<?xml version="1.0"?>
<svg xmlns="http://www.w3.org/2000/svg">
	<line x1="160.0" y1="0" x2="160.0" y2="60.0" stroke="black" stroke-width="1"/> 
	<line x1="90.0" y1="100" x2="160.0" y2="60.0" stroke="gray" stroke-width="1"/> 
	<line x1="90.0" y1="100" x2="90.0" y2="160.0" stroke="black" stroke-width="1"/> 
	<line x1="160.0" y1="100" x2="160.0" y2="60.0" stroke="gray" stroke-width="1"/> 
	<line x1="160.0" y1="100" x2="160.0" y2="160.0" stroke="black" stroke-width="1"/> 
	<line x1="230.0" y1="100" x2="160.0" y2="60.0" stroke="gray" stroke-width="1"/> 
	<line x1="230.0" y1="100" x2="230.0" y2="160.0" stroke="black" stroke-width="1"/> 
	<line x1="0.0" y1="200" x2="90.0" y2="160.0" stroke="gray" stroke-width="1"/> 
	<line x1="0.0" y1="200" x2="0.0" y2="220.0" stroke="black" stroke-width="1"/> 
	<line x1="60.0" y1="200" x2="90.0" y2="160.0" stroke="gray" stroke-width="1"/> 
	<line x1="60.0" y1="200" x2="60.0" y2="220.0" stroke="black" stroke-width="1"/> 
	<line x1="120.0" y1="200" x2="90.0" y2="160.0" stroke="gray" stroke-width="1"/> 
	<line x1="120.0" y1="200" x2="120.0" y2="220.0" stroke="black" stroke-width="1"/> 
	<line x1="180.0" y1="200" x2="90.0" y2="160.0" stroke="gray" stroke-width="1"/> 
	<line x1="180.0" y1="200" x2="180.0" y2="220.0" stroke="black" stroke-width="1"/> 
	<line x1="70.0" y1="200" x2="160.0" y2="160.0" stroke="gray" stroke-width="1"/> 
	<line x1="70.0" y1="200" x2="70.0" y2="220.0" stroke="black" stroke-width="1"/> 
	<line x1="130.0" y1="200" x2="160.0" y2="160.0" stroke="gray" stroke-width="1"/> 
	<line x1="130.0" y1="200" x2="130.0" y2="220.0" stroke="black" stroke-width="1"/> 
	<line x1="190.0" y1="200" x2="160.0" y2="160.0" stroke="gray" stroke-width="1"/> 
	<line x1="190.0" y1="200" x2="190.0" y2="220.0" stroke="black" stroke-width="1"/> 
	<line x1="250.0" y1="200" x2="160.0" y2="160.0" stroke="gray" stroke-width="1"/> 
	<line x1="250.0" y1="200" x2="250.0" y2="220.0" stroke="black" stroke-width="1"/> 
	<line x1="140.0" y1="200" x2="230.0" y2="160.0" stroke="gray" stroke-width="1"/> 
	<line x1="140.0" y1="200" x2="140.0" y2="220.0" stroke="black" stroke-width="1"/> 
	<line x1="200.0" y1="200" x2="230.0" y2="160.0" stroke="gray" stroke-width="1"/> 
	<line x1="200.0" y1="200" x2="200.0" y2="220.0" stroke="black" stroke-width="1"/> 
	<line x1="260.0" y1="200" x2="230.0" y2="160.0" stroke="gray" stroke-width="1"/> 
	<line x1="260.0" y1="200" x2="260.0" y2="220.0" stroke="black" stroke-width="1"/> 
	<line x1="320.0" y1="200" x2="230.0" y2="160.0" stroke="gray" stroke-width="1"/> 
	<line x1="320.0" y1="200" x2="320.0" y2="220.0" stroke="black" stroke-width="1"/> 
	<line x1="0.0" y1="400" x2="0.0" y2="371.666666667" stroke="black" stroke-width="1"/> 
	<line x1="60.0" y1="400" x2="60.0" y2="315.0" stroke="black" stroke-width="1"/> 
	<line x1="120.0" y1="400" x2="120.0" y2="315.0" stroke="black" stroke-width="1"/> 
	<line x1="180.0" y1="400" x2="180.0" y2="371.666666667" stroke="black" stroke-width="1"/> 
	<line x1="70.0" y1="400" x2="70.0" y2="343.333333333" stroke="black" stroke-width="1"/> 
	<line x1="130.0" y1="400" x2="130.0" y2="230.0" stroke="black" stroke-width="1"/> 
	<line x1="190.0" y1="400" x2="190.0" y2="230.0" stroke="black" stroke-width="1"/> 
	<line x1="250.0" y1="400" x2="250.0" y2="343.333333333" stroke="black" stroke-width="1"/> 
	<line x1="140.0" y1="400" x2="140.0" y2="371.666666667" stroke="black" stroke-width="1"/> 
	<line x1="200.0" y1="400" x2="200.0" y2="315.0" stroke="black" stroke-width="1"/> 
	<line x1="260.0" y1="400" x2="260.0" y2="315.0" stroke="black" stroke-width="1"/> 
	<line x1="320.0" y1="400" x2="320.0" y2="371.666666667" stroke="black" stroke-width="1"/> 
<text x="15" y="425" fill="black">Splitting pattern of: [(2, 7.0), (3, 6.0)]</text></svg>