<?xml version="1.0"?>
<svg xmlns="http://www.w3.org/2000/svg">
	<line x1="250.0" y1="0" x2="250.0" y2="60.0" stroke="black" stroke-width="1"/> 
	<line x1="180.0" y1="100" x2="250.0" y2="60.0" stroke="gray" stroke-width="1"/> 
	<line x1="180.0" y1="100" x2="180.0" y2="160.0" stroke="black" stroke-width="1"/> 
	<line x1="250.0" y1="100" x2="250.0" y2="60.0" stroke="gray" stroke-width="1"/> 
	<line x1="250.0" y1="100" x2="250.0" y2="160.0" stroke="black" stroke-width="1"/> 
	<line x1="320.0" y1="100" x2="250.0" y2="60.0" stroke="gray" stroke-width="1"/> 
	<line x1="320.0" y1="100" x2="320.0" y2="160.0" stroke="black" stroke-width="1"/> 
	<line x1="110.0" y1="200" x2="180.0" y2="160.0" stroke="gray" stroke-width="1"/> 
	<line x1="110.0" y1="200" x2="110.0" y2="260.0" stroke="black" stroke-width="1"/> 
	<line x1="180.0" y1="200" x2="180.0" y2="160.0" stroke="gray" stroke-width="1"/> 
	<line x1="180.0" y1="200" x2="180.0" y2="260.0" stroke="black" stroke-width="1"/> 
	<line x1="250.0" y1="200" x2="180.0" y2="160.0" stroke="gray" stroke-width="1"/> 
	<line x1="250.0" y1="200" x2="250.0" y2="260.0" stroke="black" stroke-width="1"/> 
	<line x1="180.0" y1="200" x2="250.0" y2="160.0" stroke="gray" stroke-width="1"/> 
	<line x1="180.0" y1="200" x2="180.0" y2="260.0" stroke="black" stroke-width="1"/> 
	<line x1="250.0" y1="200" x2="250.0" y2="160.0" stroke="gray" stroke-width="1"/> 
	<line x1="250.0" y1="200" x2="250.0" y2="260.0" stroke="black" stroke-width="1"/> 
	<line x1="320.0" y1="200" x2="250.0" y2="160.0" stroke="gray" stroke-width="1"/> 
	<line x1="320.0" y1="200" x2="320.0" y2="260.0" stroke="black" stroke-width="1"/> 
	<line x1="250.0" y1="200" x2="320.0" y2="160.0" stroke="gray" stroke-width="1"/> 
	<line x1="250.0" y1="200" x2="250.0" y2="260.0" stroke="black" stroke-width="1"/> 
	<line x1="320.0" y1="200" x2="320.0" y2="160.0" stroke="gray" stroke-width="1"/> 
	<line x1="320.0" y1="200" x2="320.0" y2="260.0" stroke="black" stroke-width="1"/> 
	<line x1="390.0" y1="200" x2="320.0" y2="160.0" stroke="gray" stroke-width="1"/> 
	<line x1="390.0" y1="200" x2="390.0" y2="260.0" stroke="black" stroke-width="1"/> 
	<line x1="20.0" y1="300" x2="110.0" y2="260.0" stroke="gray" stroke-width="1"/> 
	<line x1="20.0" y1="300" x2="20.0" y2="360.0" stroke="black" stroke-width="1"/> 
	<line x1="80.0" y1="300" x2="110.0" y2="260.0" stroke="gray" stroke-width="1"/> 
	<line x1="80.0" y1="300" x2="80.0" y2="360.0" stroke="black" stroke-width="1"/> 
	<line x1="140.0" y1="300" x2="110.0" y2="260.0" stroke="gray" stroke-width="1"/> 
	<line x1="140.0" y1="300" x2="140.0" y2="360.0" stroke="black" stroke-width="1"/> 
	<line x1="200.0" y1="300" x2="110.0" y2="260.0" stroke="gray" stroke-width="1"/> 
	<line x1="200.0" y1="300" x2="200.0" y2="360.0" stroke="black" stroke-width="1"/> 
	<line x1="90.0" y1="300" x2="180.0" y2="260.0" stroke="gray" stroke-width="1"/> 
	<line x1="90.0" y1="300" x2="90.0" y2="360.0" stroke="black" stroke-width="1"/> 
	<line x1="150.0" y1="300" x2="180.0" y2="260.0" stroke="gray" stroke-width="1"/> 
	<line x1="150.0" y1="300" x2="150.0" y2="360.0" stroke="black" stroke-width="1"/> 
	<line x1="210.0" y1="300" x2="180.0" y2="260.0" stroke="gray" stroke-width="1"/> 
	<line x1="210.0" y1="300" x2="210.0" y2="360.0" stroke="black" stroke-width="1"/> 
	<line x1="270.0" y1="300" x2="180.0" y2="260.0" stroke="gray" stroke-width="1"/> 
	<line x1="270.0" y1="300" x2="270.0" y2="360.0" stroke="black" stroke-width="1"/> 
	<line x1="160.0" y1="300" x2="250.0" y2="260.0" stroke="gray" stroke-width="1"/> 
	<line x1="160.0" y1="300" x2="160.0" y2="360.0" stroke="black" stroke-width="1"/> 
	<line x1="220.0" y1="300" x2="250.0" y2="260.0" stroke="gray" stroke-width="1"/> 
	<line x1="220.0" y1="300" x2="220.0" y2="360.0" stroke="black" stroke-width="1"/> 
	<line x1="280.0" y1="300" x2="250.0" y2="260.0" stroke="gray" stroke-width="1"/> 
	<line x1="280.0" y1="300" x2="280.0" y2="360.0" stroke="black" stroke-width="1"/> 
	<line x1="340.0" y1="300" x2="250.0" y2="260.0" stroke="gray" stroke-width="1"/> 
	<line x1="340.0" y1="300" x2="340.0" y2="360.0" stroke="black" stroke-width="1"/> 
	<line x1="90.0" y1="300" x2="180.0" y2="260.0" stroke="gray" stroke-width="1"/> 
	<line x1="90.0" y1="300" x2="90.0" y2="360.0" stroke="black" stroke-width="1"/> 
	<line x1="150.0" y1="300" x2="180.0" y2="260.0" stroke="gray" stroke-width="1"/> 
	<line x1="150.0" y1="300" x2="150.0" y2="360.0" stroke="black" stroke-width="1"/> 
	<line x1="210.0" y1="300" x2="180.0" y2="260.0" stroke="gray" stroke-width="1"/> 
	<line x1="210.0" y1="300" x2="210.0" y2="360.0" stroke="black" stroke-width="1"/> 
	<line x1="270.0" y1="300" x2="180.0" y2="260.0" stroke="gray" stroke-width="1"/> 
	<line x1="270.0" y1="300" x2="270.0" y2="360.0" stroke="black" stroke-width="1"/> 
	<line x1="160.0" y1="300" x2="250.0" y2="260.0" stroke="gray" stroke-width="1"/> 
	<line x1="160.0" y1="300" x2="160.0" y2="360.0" stroke="black" stroke-width="1"/> 
	<line x1="220.0" y1="300" x2="250.0" y2="260.0" stroke="gray" stroke-width="1"/> 
	<line x1="220.0" y1="300" x2="220.0" y2="360.0" stroke="black" stroke-width="1"/> 
	<line x1="280.0" y1="300" x2="250.0" y2="260.0" stroke="gray" stroke-width="1"/> 
	<line x1="280.0" y1="300" x2="280.0" y2="360.0" stroke="black" stroke-width="1"/> 
	<line x1="340.0" y1="300" x2="250.0" y2="260.0" stroke="gray" stroke-width="1"/> 
	<line x1="340.0" y1="300" x2="340.0" y2="360.0" stroke="black" stroke-width="1"/> 
	<line x1="230.0" y1="300" x2="320.0" y2="260.0" stroke="gray" stroke-width="1"/> 
	<line x1="230.0" y1="300" x2="230.0" y2="360.0" stroke="black" stroke-width="1"/> 
	<line x1="290.0" y1="300" x2="320.0" y2="260.0" stroke="gray" stroke-width="1"/> 
	<line x1="290.0" y1="300" x2="290.0" y2="360.0" stroke="black" stroke-width="1"/> 
	<line x1="350.0" y1="300" x2="320.0" y2="260.0" stroke="gray" stroke-width="1"/> 
	<line x1="350.0" y1="300" x2="350.0" y2="360.0" stroke="black" stroke-width="1"/> 
	<line x1="410.0" y1="300" x2="320.0" y2="260.0" stroke="gray" stroke-width="1"/> 
	<line x1="410.0" y1="300" x2="410.0" y2="360.0" stroke="black" stroke-width="1"/> 
	<line x1="160.0" y1="300" x2="250.0" y2="260.0" stroke="gray" stroke-width="1"/> 
	<line x1="160.0" y1="300" x2="160.0" y2="360.0" stroke="black" stroke-width="1"/> 
	<line x1="220.0" y1="300" x2="250.0" y2="260.0" stroke="gray" stroke-width="1"/> 
	<line x1="220.0" y1="300" x2="220.0" y2="360.0" stroke="black" stroke-width="1"/> 
	<line x1="280.0" y1="300" x2="250.0" y2="260.0" stroke="gray" stroke-width="1"/> 
	<line x1="280.0" y1="300" x2="280.0" y2="360.0" stroke="black" stroke-width="1"/> 
	<line x1="340.0" y1="300" x2="250.0" y2="260.0" stroke="gray" stroke-width="1"/> 
	<line x1="340.0" y1="300" x2="340.0" y2="360.0" stroke="black" stroke-width="1"/> 
	<line x1="230.0" y1="300" x2="320.0" y2="260.0" stroke="gray" stroke-width="1"/> 
	<line x1="230.0" y1="300" x2="230.0" y2="360.0" stroke="black" stroke-width="1"/> 
	<line x1="290.0" y1="300" x2="320.0" y2="260.0" stroke="gray" stroke-width="1"/> 
	<line x1="290.0" y1="300" x2="290.0" y2="360.0" stroke="black" stroke-width="1"/> 
	<line x1="350.0" y1="300" x2="320.0" y2="260.0" stroke="gray" stroke-width="1"/> 
	<line x1="350.0" y1="300" x2="350.0" y2="360.0" stroke="black" stroke-width="1"/> 
	<line x1="410.0" y1="300" x2="320.0" y2="260.0" stroke="gray" stroke-width="1"/> 
	<line x1="410.0" y1="300" x2="410.0" y2="360.0" stroke="black" stroke-width="1"/> 
	<line x1="300.0" y1="300" x2="390.0" y2="260.0" stroke="gray" stroke-width="1"/> 
	<line x1="300.0" y1="300" x2="300.0" y2="360.0" stroke="black" stroke-width="1"/> 
	<line x1="360.0" y1="300" x2="390.0" y2="260.0" stroke="gray" stroke-width="1"/> 
	<line x1="360.0" y1="300" x2="360.0" y2="360.0" stroke="black" stroke-width="1"/> 
	<line x1="420.0" y1="300" x2="390.0" y2="260.0" stroke="gray" stroke-width="1"/> 
	<line x1="420.0" y1="300" x2="420.0" y2="360.0" stroke="black" stroke-width="1"/> 
	<line x1="480.0" y1="300" x2="390.0" y2="260.0" stroke="gray" stroke-width="1"/> 
	<line x1="480.0" y1="300" x2="480.0" y2="360.0" stroke="black" stroke-width="1"/> 
	<line x1="0.0" y1="400" x2="20.0" y2="360.0" stroke="gray" stroke-width="1"/> 
	<line x1="0.0" y1="400" x2="0.0" y2="420.0" stroke="black" stroke-width="1"/> 
	<line x1="20.0" y1="400" x2="20.0" y2="360.0" stroke="gray" stroke-width="1"/> 
	<line x1="20.0" y1="400" x2="20.0" y2="420.0" stroke="black" stroke-width="1"/> 
	<line x1="40.0" y1="400" x2="20.0" y2="360.0" stroke="gray" stroke-width="1"/> 
	<line x1="40.0" y1="400" x2="40.0" y2="420.0" stroke="black" stroke-width="1"/> 
	<line x1="60.0" y1="400" x2="80.0" y2="360.0" stroke="gray" stroke-width="1"/> 
	<line x1="60.0" y1="400" x2="60.0" y2="420.0" stroke="black" stroke-width="1"/> 
	<line x1="80.0" y1="400" x2="80.0" y2="360.0" stroke="gray" stroke-width="1"/> 
	<line x1="80.0" y1="400" x2="80.0" y2="420.0" stroke="black" stroke-width="1"/> 
	<line x1="100.0" y1="400" x2="80.0" y2="360.0" stroke="gray" stroke-width="1"/> 
	<line x1="100.0" y1="400" x2="100.0" y2="420.0" stroke="black" stroke-width="1"/> 
	<line x1="120.0" y1="400" x2="140.0" y2="360.0" stroke="gray" stroke-width="1"/> 
	<line x1="120.0" y1="400" x2="120.0" y2="420.0" stroke="black" stroke-width="1"/> 
	<line x1="140.0" y1="400" x2="140.0" y2="360.0" stroke="gray" stroke-width="1"/> 
	<line x1="140.0" y1="400" x2="140.0" y2="420.0" stroke="black" stroke-width="1"/> 
	<line x1="160.0" y1="400" x2="140.0" y2="360.0" stroke="gray" stroke-width="1"/> 
	<line x1="160.0" y1="400" x2="160.0" y2="420.0" stroke="black" stroke-width="1"/> 
	<line x1="180.0" y1="400" x2="200.0" y2="360.0" stroke="gray" stroke-width="1"/> 
	<line x1="180.0" y1="400" x2="180.0" y2="420.0" stroke="black" stroke-width="1"/> 
	<line x1="200.0" y1="400" x2="200.0" y2="360.0" stroke="gray" stroke-width="1"/> 
	<line x1="200.0" y1="400" x2="200.0" y2="420.0" stroke="black" stroke-width="1"/> 
	<line x1="220.0" y1="400" x2="200.0" y2="360.0" stroke="gray" stroke-width="1"/> 
	<line x1="220.0" y1="400" x2="220.0" y2="420.0" stroke="black" stroke-width="1"/> 
	<line x1="70.0" y1="400" x2="90.0" y2="360.0" stroke="gray" stroke-width="1"/> 
	<line x1="70.0" y1="400" x2="70.0" y2="420.0" stroke="black" stroke-width="1"/> 
	<line x1="90.0" y1="400" x2="90.0" y2="360.0" stroke="gray" stroke-width="1"/> 
	<line x1="90.0" y1="400" x2="90.0" y2="420.0" stroke="black" stroke-width="1"/> 
	<line x1="110.0" y1="400" x2="90.0" y2="360.0" stroke="gray" stroke-width="1"/> 
	<line x1="110.0" y1="400" x2="110.0" y2="420.0" stroke="black" stroke-width="1"/> 
	<line x1="130.0" y1="400" x2="150.0" y2="360.0" stroke="gray" stroke-width="1"/> 
	<line x1="130.0" y1="400" x2="130.0" y2="420.0" stroke="black" stroke-width="1"/> 
	<line x1="150.0" y1="400" x2="150.0" y2="360.0" stroke="gray" stroke-width="1"/> 
	<line x1="150.0" y1="400" x2="150.0" y2="420.0" stroke="black" stroke-width="1"/> 
	<line x1="170.0" y1="400" x2="150.0" y2="360.0" stroke="gray" stroke-width="1"/> 
	<line x1="170.0" y1="400" x2="170.0" y2="420.0" stroke="black" stroke-width="1"/> 
	<line x1="190.0" y1="400" x2="210.0" y2="360.0" stroke="gray" stroke-width="1"/> 
	<line x1="190.0" y1="400" x2="190.0" y2="420.0" stroke="black" stroke-width="1"/> 
	<line x1="210.0" y1="400" x2="210.0" y2="360.0" stroke="gray" stroke-width="1"/> 
	<line x1="210.0" y1="400" x2="210.0" y2="420.0" stroke="black" stroke-width="1"/> 
	<line x1="230.0" y1="400" x2="210.0" y2="360.0" stroke="gray" stroke-width="1"/> 
	<line x1="230.0" y1="400" x2="230.0" y2="420.0" stroke="black" stroke-width="1"/> 
	<line x1="250.0" y1="400" x2="270.0" y2="360.0" stroke="gray" stroke-width="1"/> 
	<line x1="250.0" y1="400" x2="250.0" y2="420.0" stroke="black" stroke-width="1"/> 
	<line x1="270.0" y1="400" x2="270.0" y2="360.0" stroke="gray" stroke-width="1"/> 
	<line x1="270.0" y1="400" x2="270.0" y2="420.0" stroke="black" stroke-width="1"/> 
	<line x1="290.0" y1="400" x2="270.0" y2="360.0" stroke="gray" stroke-width="1"/> 
	<line x1="290.0" y1="400" x2="290.0" y2="420.0" stroke="black" stroke-width="1"/> 
	<line x1="140.0" y1="400" x2="160.0" y2="360.0" stroke="gray" stroke-width="1"/> 
	<line x1="140.0" y1="400" x2="140.0" y2="420.0" stroke="black" stroke-width="1"/> 
	<line x1="160.0" y1="400" x2="160.0" y2="360.0" stroke="gray" stroke-width="1"/> 
	<line x1="160.0" y1="400" x2="160.0" y2="420.0" stroke="black" stroke-width="1"/> 
	<line x1="180.0" y1="400" x2="160.0" y2="360.0" stroke="gray" stroke-width="1"/> 
	<line x1="180.0" y1="400" x2="180.0" y2="420.0" stroke="black" stroke-width="1"/> 
	<line x1="200.0" y1="400" x2="220.0" y2="360.0" stroke="gray" stroke-width="1"/> 
	<line x1="200.0" y1="400" x2="200.0" y2="420.0" stroke="black" stroke-width="1"/> 
	<line x1="220.0" y1="400" x2="220.0" y2="360.0" stroke="gray" stroke-width="1"/> 
	<line x1="220.0" y1="400" x2="220.0" y2="420.0" stroke="black" stroke-width="1"/> 
	<line x1="240.0" y1="400" x2="220.0" y2="360.0" stroke="gray" stroke-width="1"/> 
	<line x1="240.0" y1="400" x2="240.0" y2="420.0" stroke="black" stroke-width="1"/> 
	<line x1="260.0" y1="400" x2="280.0" y2="360.0" stroke="gray" stroke-width="1"/> 
	<line x1="260.0" y1="400" x2="260.0" y2="420.0" stroke="black" stroke-width="1"/> 
	<line x1="280.0" y1="400" x2="280.0" y2="360.0" stroke="gray" stroke-width="1"/> 
	<line x1="280.0" y1="400" x2="280.0" y2="420.0" stroke="black" stroke-width="1"/> 
	<line x1="300.0" y1="400" x2="280.0" y2="360.0" stroke="gray" stroke-width="1"/> 
	<line x1="300.0" y1="400" x2="300.0" y2="420.0" stroke="black" stroke-width="1"/> 
	<line x1="320.0" y1="400" x2="340.0" y2="360.0" stroke="gray" stroke-width="1"/> 
	<line x1="320.0" y1="400" x2="320.0" y2="420.0" stroke="black" stroke-width="1"/> 
	<line x1="340.0" y1="400" x2="340.0" y2="360.0" stroke="gray" stroke-width="1"/> 
	<line x1="340.0" y1="400" x2="340.0" y2="420.0" stroke="black" stroke-width="1"/> 
	<line x1="360.0" y1="400" x2="340.0" y2="360.0" stroke="gray" stroke-width="1"/> 
	<line x1="360.0" y1="400" x2="360.0" y2="420.0" stroke="black" stroke-width="1"/> 
	<line x1="70.0" y1="400" x2="90.0" y2="360.0" stroke="gray" stroke-width="1"/> 
	<line x1="70.0" y1="400" x2="70.0" y2="420.0" stroke="black" stroke-width="1"/> 
	<line x1="90.0" y1="400" x2="90.0" y2="360.0" stroke="gray" stroke-width="1"/> 
	<line x1="90.0" y1="400" x2="90.0" y2="420.0" stroke="black" stroke-width="1"/> 
	<line x1="110.0" y1="400" x2="90.0" y2="360.0" stroke="gray" stroke-width="1"/> 
	<line x1="110.0" y1="400" x2="110.0" y2="420.0" stroke="black" stroke-width="1"/> 
	<line x1="130.0" y1="400" x2="150.0" y2="360.0" stroke="gray" stroke-width="1"/> 
	<line x1="130.0" y1="400" x2="130.0" y2="420.0" stroke="black" stroke-width="1"/> 
	<line x1="150.0" y1="400" x2="150.0" y2="360.0" stroke="gray" stroke-width="1"/> 
	<line x1="150.0" y1="400" x2="150.0" y2="420.0" stroke="black" stroke-width="1"/> 
	<line x1="170.0" y1="400" x2="150.0" y2="360.0" stroke="gray" stroke-width="1"/> 
	<line x1="170.0" y1="400" x2="170.0" y2="420.0" stroke="black" stroke-width="1"/> 
	<line x1="190.0" y1="400" x2="210.0" y2="360.0" stroke="gray" stroke-width="1"/> 
	<line x1="190.0" y1="400" x2="190.0" y2="420.0" stroke="black" stroke-width="1"/> 
	<line x1="210.0" y1="400" x2="210.0" y2="360.0" stroke="gray" stroke-width="1"/> 
	<line x1="210.0" y1="400" x2="210.0" y2="420.0" stroke="black" stroke-width="1"/> 
	<line x1="230.0" y1="400" x2="210.0" y2="360.0" stroke="gray" stroke-width="1"/> 
	<line x1="230.0" y1="400" x2="230.0" y2="420.0" stroke="black" stroke-width="1"/> 
	<line x1="250.0" y1="400" x2="270.0" y2="360.0" stroke="gray" stroke-width="1"/> 
	<line x1="250.0" y1="400" x2="250.0" y2="420.0" stroke="black" stroke-width="1"/> 
	<line x1="270.0" y1="400" x2="270.0" y2="360.0" stroke="gray" stroke-width="1"/> 
	<line x1="270.0" y1="400" x2="270.0" y2="420.0" stroke="black" stroke-width="1"/> 
	<line x1="290.0" y1="400" x2="270.0" y2="360.0" stroke="gray" stroke-width="1"/> 
	<line x1="290.0" y1="400" x2="290.0" y2="420.0" stroke="black" stroke-width="1"/> 
	<line x1="140.0" y1="400" x2="160.0" y2="360.0" stroke="gray" stroke-width="1"/> 
	<line x1="140.0" y1="400" x2="140.0" y2="420.0" stroke="black" stroke-width="1"/> 
	<line x1="160.0" y1="400" x2="160.0" y2="360.0" stroke="gray" stroke-width="1"/> 
	<line x1="160.0" y1="400" x2="160.0" y2="420.0" stroke="black" stroke-width="1"/> 
	<line x1="180.0" y1="400" x2="160.0" y2="360.0" stroke="gray" stroke-width="1"/> 
	<line x1="180.0" y1="400" x2="180.0" y2="420.0" stroke="black" stroke-width="1"/> 
	<line x1="200.0" y1="400" x2="220.0" y2="360.0" stroke="gray" stroke-width="1"/> 
	<line x1="200.0" y1="400" x2="200.0" y2="420.0" stroke="black" stroke-width="1"/> 
	<line x1="220.0" y1="400" x2="220.0" y2="360.0" stroke="gray" stroke-width="1"/> 
	<line x1="220.0" y1="400" x2="220.0" y2="420.0" stroke="black" stroke-width="1"/> 
	<line x1="240.0" y1="400" x2="220.0" y2="360.0" stroke="gray" stroke-width="1"/> 
	<line x1="240.0" y1="400" x2="240.0" y2="420.0" stroke="black" stroke-width="1"/> 
	<line x1="260.0" y1="400" x2="280.0" y2="360.0" stroke="gray" stroke-width="1"/> 
	<line x1="260.0" y1="400" x2="260.0" y2="420.0" stroke="black" stroke-width="1"/> 
	<line x1="280.0" y1="400" x2="280.0" y2="360.0" stroke="gray" stroke-width="1"/> 
	<line x1="280.0" y1="400" x2="280.0" y2="420.0" stroke="black" stroke-width="1"/> 
	<line x1="300.0" y1="400" x2="280.0" y2="360.0" stroke="gray" stroke-width="1"/> 
	<line x1="300.0" y1="400" x2="300.0" y2="420.0" stroke="black" stroke-width="1"/> 
	<line x1="320.0" y1="400" x2="340.0" y2="360.0" stroke="gray" stroke-width="1"/> 
	<line x1="320.0" y1="400" x2="320.0" y2="420.0" stroke="black" stroke-width="1"/> 
	<line x1="340.0" y1="400" x2="340.0" y2="360.0" stroke="gray" stroke-width="1"/> 
	<line x1="340.0" y1="400" x2="340.0" y2="420.0" stroke="black" stroke-width="1"/> 
	<line x1="360.0" y1="400" x2="340.0" y2="360.0" stroke="gray" stroke-width="1"/> 
	<line x1="360.0" y1="400" x2="360.0" y2="420.0" stroke="black" stroke-width="1"/> 
	<line x1="210.0" y1="400" x2="230.0" y2="360.0" stroke="gray" stroke-width="1"/> 
	<line x1="210.0" y1="400" x2="210.0" y2="420.0" stroke="black" stroke-width="1"/> 
	<line x1="230.0" y1="400" x2="230.0" y2="360.0" stroke="gray" stroke-width="1"/> 
	<line x1="230.0" y1="400" x2="230.0" y2="420.0" stroke="black" stroke-width="1"/> 
	<line x1="250.0" y1="400" x2="230.0" y2="360.0" stroke="gray" stroke-width="1"/> 
	<line x1="250.0" y1="400" x2="250.0" y2="420.0" stroke="black" stroke-width="1"/> 
	<line x1="270.0" y1="400" x2="290.0" y2="360.0" stroke="gray" stroke-width="1"/> 
	<line x1="270.0" y1="400" x2="270.0" y2="420.0" stroke="black" stroke-width="1"/> 
	<line x1="290.0" y1="400" x2="290.0" y2="360.0" stroke="gray" stroke-width="1"/> 
	<line x1="290.0" y1="400" x2="290.0" y2="420.0" stroke="black" stroke-width="1"/> 
	<line x1="310.0" y1="400" x2="290.0" y2="360.0" stroke="gray" stroke-width="1"/> 
	<line x1="310.0" y1="400" x2="310.0" y2="420.0" stroke="black" stroke-width="1"/> 
	<line x1="330.0" y1="400" x2="350.0" y2="360.0" stroke="gray" stroke-width="1"/> 
	<line x1="330.0" y1="400" x2="330.0" y2="420.0" stroke="black" stroke-width="1"/> 
	<line x1="350.0" y1="400" x2="350.0" y2="360.0" stroke="gray" stroke-width="1"/> 
	<line x1="350.0" y1="400" x2="350.0" y2="420.0" stroke="black" stroke-width="1"/> 
	<line x1="370.0" y1="400" x2="350.0" y2="360.0" stroke="gray" stroke-width="1"/> 
	<line x1="370.0" y1="400" x2="370.0" y2="420.0" stroke="black" stroke-width="1"/> 
	<line x1="390.0" y1="400" x2="410.0" y2="360.0" stroke="gray" stroke-width="1"/> 
	<line x1="390.0" y1="400" x2="390.0" y2="420.0" stroke="black" stroke-width="1"/> 
	<line x1="410.0" y1="400" x2="410.0" y2="360.0" stroke="gray" stroke-width="1"/> 
	<line x1="410.0" y1="400" x2="410.0" y2="420.0" stroke="black" stroke-width="1"/> 
	<line x1="430.0" y1="400" x2="410.0" y2="360.0" stroke="gray" stroke-width="1"/> 
	<line x1="430.0" y1="400" x2="430.0" y2="420.0" stroke="black" stroke-width="1"/> 
	<line x1="140.0" y1="400" x2="160.0" y2="360.0" stroke="gray" stroke-width="1"/> 
	<line x1="140.0" y1="400" x2="140.0" y2="420.0" stroke="black" stroke-width="1"/> 
	<line x1="160.0" y1="400" x2="160.0" y2="360.0" stroke="gray" stroke-width="1"/> 
	<line x1="160.0" y1="400" x2="160.0" y2="420.0" stroke="black" stroke-width="1"/> 
	<line x1="180.0" y1="400" x2="160.0" y2="360.0" stroke="gray" stroke-width="1"/> 
	<line x1="180.0" y1="400" x2="180.0" y2="420.0" stroke="black" stroke-width="1"/> 
	<line x1="200.0" y1="400" x2="220.0" y2="360.0" stroke="gray" stroke-width="1"/> 
	<line x1="200.0" y1="400" x2="200.0" y2="420.0" stroke="black" stroke-width="1"/> 
	<line x1="220.0" y1="400" x2="220.0" y2="360.0" stroke="gray" stroke-width="1"/> 
	<line x1="220.0" y1="400" x2="220.0" y2="420.0" stroke="black" stroke-width="1"/> 
	<line x1="240.0" y1="400" x2="220.0" y2="360.0" stroke="gray" stroke-width="1"/> 
	<line x1="240.0" y1="400" x2="240.0" y2="420.0" stroke="black" stroke-width="1"/> 
	<line x1="260.0" y1="400" x2="280.0" y2="360.0" stroke="gray" stroke-width="1"/> 
	<line x1="260.0" y1="400" x2="260.0" y2="420.0" stroke="black" stroke-width="1"/> 
	<line x1="280.0" y1="400" x2="280.0" y2="360.0" stroke="gray" stroke-width="1"/> 
	<line x1="280.0" y1="400" x2="280.0" y2="420.0" stroke="black" stroke-width="1"/> 
	<line x1="300.0" y1="400" x2="280.0" y2="360.0" stroke="gray" stroke-width="1"/> 
	<line x1="300.0" y1="400" x2="300.0" y2="420.0" stroke="black" stroke-width="1"/> 
	<line x1="320.0" y1="400" x2="340.0" y2="360.0" stroke="gray" stroke-width="1"/> 
	<line x1="320.0" y1="400" x2="320.0" y2="420.0" stroke="black" stroke-width="1"/> 
	<line x1="340.0" y1="400" x2="340.0" y2="360.0" stroke="gray" stroke-width="1"/> 
	<line x1="340.0" y1="400" x2="340.0" y2="420.0" stroke="black" stroke-width="1"/> 
	<line x1="360.0" y1="400" x2="340.0" y2="360.0" stroke="gray" stroke-width="1"/> 
	<line x1="360.0" y1="400" x2="360.0" y2="420.0" stroke="black" stroke-width="1"/> 
	<line x1="210.0" y1="400" x2="230.0" y2="360.0" stroke="gray" stroke-width="1"/> 
	<line x1="210.0" y1="400" x2="210.0" y2="420.0" stroke="black" stroke-width="1"/> 
	<line x1="230.0" y1="400" x2="230.0" y2="360.0" stroke="gray" stroke-width="1"/> 
	<line x1="230.0" y1="400" x2="230.0" y2="420.0" stroke="black" stroke-width="1"/> 
	<line x1="250.0" y1="400" x2="230.0" y2="360.0" stroke="gray" stroke-width="1"/> 
	<line x1="250.0" y1="400" x2="250.0" y2="420.0" stroke="black" stroke-width="1"/> 
	<line x1="270.0" y1="400" x2="290.0" y2="360.0" stroke="gray" stroke-width="1"/> 
	<line x1="270.0" y1="400" x2="270.0" y2="420.0" stroke="black" stroke-width="1"/> 
	<line x1="290.0" y1="400" x2="290.0" y2="360.0" stroke="gray" stroke-width="1"/> 
	<line x1="290.0" y1="400" x2="290.0" y2="420.0" stroke="black" stroke-width="1"/> 
	<line x1="310.0" y1="400" x2="290.0" y2="360.0" stroke="gray" stroke-width="1"/> 
	<line x1="310.0" y1="400" x2="310.0" y2="420.0" stroke="black" stroke-width="1"/> 
	<line x1="330.0" y1="400" x2="350.0" y2="360.0" stroke="gray" stroke-width="1"/> 
	<line x1="330.0" y1="400" x2="330.0" y2="420.0" stroke="black" stroke-width="1"/> 
	<line x1="350.0" y1="400" x2="350.0" y2="360.0" stroke="gray" stroke-width="1"/> 
	<line x1="350.0" y1="400" x2="350.0" y2="420.0" stroke="black" stroke-width="1"/> 
	<line x1="370.0" y1="400" x2="350.0" y2="360.0" stroke="gray" stroke-width="1"/> 
	<line x1="370.0" y1="400" x2="370.0" y2="420.0" stroke="black" stroke-width="1"/> 
	<line x1="390.0" y1="400" x2="410.0" y2="360.0" stroke="gray" stroke-width="1"/> 
	<line x1="390.0" y1="400" x2="390.0" y2="420.0" stroke="black" stroke-width="1"/> 
	<line x1="410.0" y1="400" x2="410.0" y2="360.0" stroke="gray" stroke-width="1"/> 
	<line x1="410.0" y1="400" x2="410.0" y2="420.0" stroke="black" stroke-width="1"/> 
	<line x1="430.0" y1="400" x2="410.0" y2="360.0" stroke="gray" stroke-width="1"/> 
	<line x1="430.0" y1="400" x2="430.0" y2="420.0" stroke="black" stroke-width="1"/> 
	<line x1="280.0" y1="400" x2="300.0" y2="360.0" stroke="gray" stroke-width="1"/> 
	<line x1="280.0" y1="400" x2="280.0" y2="420.0" stroke="black" stroke-width="1"/> 
	<line x1="300.0" y1="400" x2="300.0" y2="360.0" stroke="gray" stroke-width="1"/> 
	<line x1="300.0" y1="400" x2="300.0" y2="420.0" stroke="black" stroke-width="1"/> 
	<line x1="320.0" y1="400" x2="300.0" y2="360.0" stroke="gray" stroke-width="1"/> 
	<line x1="320.0" y1="400" x2="320.0" y2="420.0" stroke="black" stroke-width="1"/> 
	<line x1="340.0" y1="400" x2="360.0" y2="360.0" stroke="gray" stroke-width="1"/> 
	<line x1="340.0" y1="400" x2="340.0" y2="420.0" stroke="black" stroke-width="1"/> 
	<line x1="360.0" y1="400" x2="360.0" y2="360.0" stroke="gray" stroke-width="1"/> 
	<line x1="360.0" y1="400" x2="360.0" y2="420.0" stroke="black" stroke-width="1"/> 
	<line x1="380.0" y1="400" x2="360.0" y2="360.0" stroke="gray" stroke-width="1"/> 
	<line x1="380.0" y1="400" x2="380.0" y2="420.0" stroke="black" stroke-width="1"/> 
	<line x1="400.0" y1="400" x2="420.0" y2="360.0" stroke="gray" stroke-width="1"/> 
	<line x1="400.0" y1="400" x2="400.0" y2="420.0" stroke="black" stroke-width="1"/> 
	<line x1="420.0" y1="400" x2="420.0" y2="360.0" stroke="gray" stroke-width="1"/> 
	<line x1="420.0" y1="400" x2="420.0" y2="420.0" stroke="black" stroke-width="1"/> 
	<line x1="440.0" y1="400" x2="420.0" y2="360.0" stroke="gray" stroke-width="1"/> 
	<line x1="440.0" y1="400" x2="440.0" y2="420.0" stroke="black" stroke-width="1"/> 
	<line x1="460.0" y1="400" x2="480.0" y2="360.0" stroke="gray" stroke-width="1"/> 
	<line x1="460.0" y1="400" x2="460.0" y2="420.0" stroke="black" stroke-width="1"/> 
	<line x1="480.0" y1="400" x2="480.0" y2="360.0" stroke="gray" stroke-width="1"/> 
	<line x1="480.0" y1="400" x2="480.0" y2="420.0" stroke="black" stroke-width="1"/> 
	<line x1="500.0" y1="400" x2="480.0" y2="360.0" stroke="gray" stroke-width="1"/> 
	<line x1="500.0" y1="400" x2="500.0" y2="420.0" stroke="black" stroke-width="1"/> 
	<line x1="0.0" y1="600" x2="0.0" y2="592.916666667" stroke="black" stroke-width="1"/> 
	<line x1="20.0" y1="600" x2="20.0" y2="585.833333333" stroke="black" stroke-width="1"/> 
	<line x1="40.0" y1="600" x2="40.0" y2="592.916666667" stroke="black" stroke-width="1"/> 
	<line x1="60.0" y1="600" x2="60.0" y2="578.75" stroke="black" stroke-width="1"/> 
	<line x1="80.0" y1="600" x2="80.0" y2="557.5" stroke="black" stroke-width="1"/> 
	<line x1="100.0" y1="600" x2="100.0" y2="578.75" stroke="black" stroke-width="1"/> 
	<line x1="120.0" y1="600" x2="120.0" y2="578.75" stroke="black" stroke-width="1"/> 
	<line x1="140.0" y1="600" x2="140.0" y2="557.5" stroke="black" stroke-width="1"/> 
	<line x1="160.0" y1="600" x2="160.0" y2="578.75" stroke="black" stroke-width="1"/> 
	<line x1="180.0" y1="600" x2="180.0" y2="592.916666667" stroke="black" stroke-width="1"/> 
	<line x1="200.0" y1="600" x2="200.0" y2="585.833333333" stroke="black" stroke-width="1"/> 
	<line x1="220.0" y1="600" x2="220.0" y2="592.916666667" stroke="black" stroke-width="1"/> 
	<line x1="70.0" y1="600" x2="70.0" y2="585.833333333" stroke="black" stroke-width="1"/> 
	<line x1="90.0" y1="600" x2="90.0" y2="571.666666667" stroke="black" stroke-width="1"/> 
	<line x1="110.0" y1="600" x2="110.0" y2="585.833333333" stroke="black" stroke-width="1"/> 
	<line x1="130.0" y1="600" x2="130.0" y2="557.5" stroke="black" stroke-width="1"/> 
	<line x1="150.0" y1="600" x2="150.0" y2="515.0" stroke="black" stroke-width="1"/> 
	<line x1="170.0" y1="600" x2="170.0" y2="557.5" stroke="black" stroke-width="1"/> 
	<line x1="190.0" y1="600" x2="190.0" y2="557.5" stroke="black" stroke-width="1"/> 
	<line x1="210.0" y1="600" x2="210.0" y2="515.0" stroke="black" stroke-width="1"/> 
	<line x1="230.0" y1="600" x2="230.0" y2="557.5" stroke="black" stroke-width="1"/> 
	<line x1="250.0" y1="600" x2="250.0" y2="585.833333333" stroke="black" stroke-width="1"/> 
	<line x1="270.0" y1="600" x2="270.0" y2="571.666666667" stroke="black" stroke-width="1"/> 
	<line x1="290.0" y1="600" x2="290.0" y2="585.833333333" stroke="black" stroke-width="1"/> 
	<line x1="140.0" y1="600" x2="140.0" y2="592.916666667" stroke="black" stroke-width="1"/> 
	<line x1="160.0" y1="600" x2="160.0" y2="585.833333333" stroke="black" stroke-width="1"/> 
	<line x1="180.0" y1="600" x2="180.0" y2="592.916666667" stroke="black" stroke-width="1"/> 
	<line x1="200.0" y1="600" x2="200.0" y2="578.75" stroke="black" stroke-width="1"/> 
	<line x1="220.0" y1="600" x2="220.0" y2="557.5" stroke="black" stroke-width="1"/> 
	<line x1="240.0" y1="600" x2="240.0" y2="578.75" stroke="black" stroke-width="1"/> 
	<line x1="260.0" y1="600" x2="260.0" y2="578.75" stroke="black" stroke-width="1"/> 
	<line x1="280.0" y1="600" x2="280.0" y2="557.5" stroke="black" stroke-width="1"/> 
	<line x1="300.0" y1="600" x2="300.0" y2="578.75" stroke="black" stroke-width="1"/> 
	<line x1="320.0" y1="600" x2="320.0" y2="592.916666667" stroke="black" stroke-width="1"/> 
	<line x1="340.0" y1="600" x2="340.0" y2="585.833333333" stroke="black" stroke-width="1"/> 
	<line x1="360.0" y1="600" x2="360.0" y2="592.916666667" stroke="black" stroke-width="1"/> 
	<line x1="70.0" y1="600" x2="70.0" y2="585.833333333" stroke="black" stroke-width="1"/> 
	<line x1="90.0" y1="600" x2="90.0" y2="571.666666667" stroke="black" stroke-width="1"/> 
	<line x1="110.0" y1="600" x2="110.0" y2="585.833333333" stroke="black" stroke-width="1"/> 
	<line x1="130.0" y1="600" x2="130.0" y2="557.5" stroke="black" stroke-width="1"/> 
	<line x1="150.0" y1="600" x2="150.0" y2="515.0" stroke="black" stroke-width="1"/> 
	<line x1="170.0" y1="600" x2="170.0" y2="557.5" stroke="black" stroke-width="1"/> 
	<line x1="190.0" y1="600" x2="190.0" y2="557.5" stroke="black" stroke-width="1"/> 
	<line x1="210.0" y1="600" x2="210.0" y2="515.0" stroke="black" stroke-width="1"/> 
	<line x1="230.0" y1="600" x2="230.0" y2="557.5" stroke="black" stroke-width="1"/> 
	<line x1="250.0" y1="600" x2="250.0" y2="585.833333333" stroke="black" stroke-width="1"/> 
	<line x1="270.0" y1="600" x2="270.0" y2="571.666666667" stroke="black" stroke-width="1"/> 
	<line x1="290.0" y1="600" x2="290.0" y2="585.833333333" stroke="black" stroke-width="1"/> 
	<line x1="140.0" y1="600" x2="140.0" y2="571.666666667" stroke="black" stroke-width="1"/> 
	<line x1="160.0" y1="600" x2="160.0" y2="543.333333333" stroke="black" stroke-width="1"/> 
	<line x1="180.0" y1="600" x2="180.0" y2="571.666666667" stroke="black" stroke-width="1"/> 
	<line x1="200.0" y1="600" x2="200.0" y2="515.0" stroke="black" stroke-width="1"/> 
	<line x1="220.0" y1="600" x2="220.0" y2="430.0" stroke="black" stroke-width="1"/> 
	<line x1="240.0" y1="600" x2="240.0" y2="515.0" stroke="black" stroke-width="1"/> 
	<line x1="260.0" y1="600" x2="260.0" y2="515.0" stroke="black" stroke-width="1"/> 
	<line x1="280.0" y1="600" x2="280.0" y2="430.0" stroke="black" stroke-width="1"/> 
	<line x1="300.0" y1="600" x2="300.0" y2="515.0" stroke="black" stroke-width="1"/> 
	<line x1="320.0" y1="600" x2="320.0" y2="571.666666667" stroke="black" stroke-width="1"/> 
	<line x1="340.0" y1="600" x2="340.0" y2="543.333333333" stroke="black" stroke-width="1"/> 
	<line x1="360.0" y1="600" x2="360.0" y2="571.666666667" stroke="black" stroke-width="1"/> 
	<line x1="210.0" y1="600" x2="210.0" y2="585.833333333" stroke="black" stroke-width="1"/> 
	<line x1="230.0" y1="600" x2="230.0" y2="571.666666667" stroke="black" stroke-width="1"/> 
	<line x1="250.0" y1="600" x2="250.0" y2="585.833333333" stroke="black" stroke-width="1"/> 
	<line x1="270.0" y1="600" x2="270.0" y2="557.5" stroke="black" stroke-width="1"/> 
	<line x1="290.0" y1="600" x2="290.0" y2="515.0" stroke="black" stroke-width="1"/> 
	<line x1="310.0" y1="600" x2="310.0" y2="557.5" stroke="black" stroke-width="1"/> 
	<line x1="330.0" y1="600" x2="330.0" y2="557.5" stroke="black" stroke-width="1"/> 
	<line x1="350.0" y1="600" x2="350.0" y2="515.0" stroke="black" stroke-width="1"/> 
	<line x1="370.0" y1="600" x2="370.0" y2="557.5" stroke="black" stroke-width="1"/> 
	<line x1="390.0" y1="600" x2="390.0" y2="585.833333333" stroke="black" stroke-width="1"/> 
	<line x1="410.0" y1="600" x2="410.0" y2="571.666666667" stroke="black" stroke-width="1"/> 
	<line x1="430.0" y1="600" x2="430.0" y2="585.833333333" stroke="black" stroke-width="1"/> 
	<line x1="140.0" y1="600" x2="140.0" y2="592.916666667" stroke="black" stroke-width="1"/> 
	<line x1="160.0" y1="600" x2="160.0" y2="585.833333333" stroke="black" stroke-width="1"/> 
	<line x1="180.0" y1="600" x2="180.0" y2="592.916666667" stroke="black" stroke-width="1"/> 
	<line x1="200.0" y1="600" x2="200.0" y2="578.75" stroke="black" stroke-width="1"/> 
	<line x1="220.0" y1="600" x2="220.0" y2="557.5" stroke="black" stroke-width="1"/> 
	<line x1="240.0" y1="600" x2="240.0" y2="578.75" stroke="black" stroke-width="1"/> 
	<line x1="260.0" y1="600" x2="260.0" y2="578.75" stroke="black" stroke-width="1"/> 
	<line x1="280.0" y1="600" x2="280.0" y2="557.5" stroke="black" stroke-width="1"/> 
	<line x1="300.0" y1="600" x2="300.0" y2="578.75" stroke="black" stroke-width="1"/> 
	<line x1="320.0" y1="600" x2="320.0" y2="592.916666667" stroke="black" stroke-width="1"/> 
	<line x1="340.0" y1="600" x2="340.0" y2="585.833333333" stroke="black" stroke-width="1"/> 
	<line x1="360.0" y1="600" x2="360.0" y2="592.916666667" stroke="black" stroke-width="1"/> 
	<line x1="210.0" y1="600" x2="210.0" y2="585.833333333" stroke="black" stroke-width="1"/> 
	<line x1="230.0" y1="600" x2="230.0" y2="571.666666667" stroke="black" stroke-width="1"/> 
	<line x1="250.0" y1="600" x2="250.0" y2="585.833333333" stroke="black" stroke-width="1"/> 
	<line x1="270.0" y1="600" x2="270.0" y2="557.5" stroke="black" stroke-width="1"/> 
	<line x1="290.0" y1="600" x2="290.0" y2="515.0" stroke="black" stroke-width="1"/> 
	<line x1="310.0" y1="600" x2="310.0" y2="557.5" stroke="black" stroke-width="1"/> 
	<line x1="330.0" y1="600" x2="330.0" y2="557.5" stroke="black" stroke-width="1"/> 
	<line x1="350.0" y1="600" x2="350.0" y2="515.0" stroke="black" stroke-width="1"/> 
	<line x1="370.0" y1="600" x2="370.0" y2="557.5" stroke="black" stroke-width="1"/> 
	<line x1="390.0" y1="600" x2="390.0" y2="585.833333333" stroke="black" stroke-width="1"/> 
	<line x1="410.0" y1="600" x2="410.0" y2="571.666666667" stroke="black" stroke-width="1"/> 
	<line x1="430.0" y1="600" x2="430.0" y2="585.833333333" stroke="black" stroke-width="1"/> 
	<line x1="280.0" y1="600" x2="280.0" y2="592.916666667" stroke="black" stroke-width="1"/> 
	<line x1="300.0" y1="600" x2="300.0" y2="585.833333333" stroke="black" stroke-width="1"/> 
	<line x1="320.0" y1="600" x2="320.0" y2="592.916666667" stroke="black" stroke-width="1"/> 
	<line x1="340.0" y1="600" x2="340.0" y2="578.75" stroke="black" stroke-width="1"/> 
	<line x1="360.0" y1="600" x2="360.0" y2="557.5" stroke="black" stroke-width="1"/> 
	<line x1="380.0" y1="600" x2="380.0" y2="578.75" stroke="black" stroke-width="1"/> 
	<line x1="400.0" y1="600" x2="400.0" y2="578.75" stroke="black" stroke-width="1"/> 
	<line x1="420.0" y1="600" x2="420.0" y2="557.5" stroke="black" stroke-width="1"/> 
	<line x1="440.0" y1="600" x2="440.0" y2="578.75" stroke="black" stroke-width="1"/> 
	<line x1="460.0" y1="600" x2="460.0" y2="592.916666667" stroke="black" stroke-width="1"/> 
	<line x1="480.0" y1="600" x2="480.0" y2="585.833333333" stroke="black" stroke-width="1"/> 
	<line x1="500.0" y1="600" x2="500.0" y2="592.916666667" stroke="black" stroke-width="1"/> 
</svg>